<svg width="555" height="86" viewBox="0 0 555 86" fill="none" xmlns="http://www.w3.org/2000/svg">
<path d="M29.235 85.38C19.575 85.38 12.33 82.8117 7.5 77.675C2.74667 72.5383 0.37 64.565 0.37 53.755C0.37 43.0217 2.74667 35.0867 7.5 29.95C12.33 24.7367 19.575 22.13 29.235 22.13C37.285 22.13 43.6867 24.2 48.44 28.34C53.27 32.4033 55.685 38.3833 55.685 46.28H39.815C39.815 42.6 38.8567 39.7633 36.94 37.77C35.0233 35.7767 32.34 34.78 28.89 34.78C24.5967 34.78 21.415 36.3133 19.345 39.38C17.3517 42.37 16.355 46.855 16.355 52.835V54.675C16.355 60.655 17.39 65.1783 19.46 68.245C21.6067 71.235 25.0183 72.73 29.695 72.73C32.9917 72.73 35.5983 71.7333 37.515 69.74C39.5083 67.67 40.505 64.8333 40.505 61.23H55.685C55.685 69.1267 53.3083 75.145 48.555 79.285C43.8017 83.3483 37.3617 85.38 29.235 85.38ZM94.9764 85.38C84.6264 85.38 76.9214 82.8117 71.8614 77.675C66.8014 72.5383 64.2714 64.565 64.2714 53.755C64.2714 42.945 66.8014 34.9717 71.8614 29.835C76.9214 24.6983 84.6264 22.13 94.9764 22.13C105.326 22.13 113.031 24.6983 118.091 29.835C123.228 34.9717 125.796 42.945 125.796 53.755C125.796 64.565 123.228 72.5383 118.091 77.675C113.031 82.8117 105.326 85.38 94.9764 85.38ZM94.9764 72.5C100.113 72.5 103.831 71.0433 106.131 68.13C108.431 65.14 109.581 60.655 109.581 54.675V52.835C109.581 46.855 108.431 42.4083 106.131 39.495C103.831 36.505 100.113 35.01 94.9764 35.01C89.8397 35.01 86.1214 36.505 83.8214 39.495C81.598 42.4083 80.4864 46.855 80.4864 52.835V54.675C80.4864 60.655 81.598 65.14 83.8214 68.13C86.1214 71.0433 89.8397 72.5 94.9764 72.5ZM152.284 85.38C147.607 85.38 143.314 84.1533 139.404 81.7C135.494 79.2467 133.539 74.8 133.539 68.36C133.539 60.6167 136.721 55.135 143.084 51.915C149.447 48.6183 158.456 46.97 170.109 46.97V42.715C170.109 40.0317 169.496 37.9617 168.269 36.505C167.119 35.0483 164.896 34.32 161.599 34.32C158.072 34.32 155.542 34.8567 154.009 35.93C152.552 37.0033 151.824 38.2683 151.824 39.725V41.45H136.644C136.567 40.99 136.529 40.1467 136.529 38.92C136.529 33.86 138.752 29.7967 143.199 26.73C147.722 23.6633 153.702 22.13 161.139 22.13C169.419 22.13 175.591 23.8167 179.654 27.19C183.794 30.5633 185.864 35.4317 185.864 41.795V68.475C185.864 69.855 186.247 70.89 187.014 71.58C187.781 72.1933 188.739 72.5 189.889 72.5H193.109V83.54C190.656 84.7667 187.627 85.38 184.024 85.38C180.881 85.38 178.236 84.69 176.089 83.31C174.019 81.93 172.601 79.975 171.834 77.445H171.144C168.921 80.0517 166.352 82.045 163.439 83.425C160.602 84.7283 156.884 85.38 152.284 85.38ZM157.229 72.96C161.676 72.96 164.934 71.7333 167.004 69.28C169.074 66.75 170.109 63.415 170.109 59.275V57.435C156.386 57.435 149.524 60.5017 149.524 66.635C149.524 68.5517 150.137 70.085 151.364 71.235C152.667 72.385 154.622 72.96 157.229 72.96ZM227.34 85.38C217.68 85.38 210.435 82.8117 205.605 77.675C200.852 72.5383 198.475 64.565 198.475 53.755C198.475 43.0217 200.852 35.0867 205.605 29.95C210.435 24.7367 217.68 22.13 227.34 22.13C235.39 22.13 241.792 24.2 246.545 28.34C251.375 32.4033 253.79 38.3833 253.79 46.28H237.92C237.92 42.6 236.962 39.7633 235.045 37.77C233.129 35.7767 230.445 34.78 226.995 34.78C222.702 34.78 219.52 36.3133 217.45 39.38C215.457 42.37 214.46 46.855 214.46 52.835V54.675C214.46 60.655 215.495 65.1783 217.565 68.245C219.712 71.235 223.124 72.73 227.8 72.73C231.097 72.73 233.704 71.7333 235.62 69.74C237.614 67.67 238.61 64.8333 238.61 61.23H253.79C253.79 69.1267 251.414 75.145 246.66 79.285C241.907 83.3483 235.467 85.38 227.34 85.38ZM266.172 0.854994H281.927V30.525H282.732C287.332 24.9283 293.235 22.13 300.442 22.13C306.652 22.13 311.52 23.8167 315.047 27.19C318.65 30.5633 320.452 35.9683 320.452 43.405V84H304.697V46.74C304.697 42.9833 303.815 40.2617 302.052 38.575C300.289 36.8883 297.682 36.045 294.232 36.045C290.705 36.045 287.754 37.31 285.377 39.84C283.077 42.2933 281.927 45.36 281.927 49.04V84H266.172V0.854994ZM364.42 67.21H330.61V54.33C340.04 39.2267 347.093 22.36 351.77 3.73H367.985C366.528 9.94 364.266 16.5333 361.2 23.51C358.21 30.41 355.105 36.6583 351.885 42.255C348.741 47.8517 346.211 51.8767 344.295 54.33H364.42V36.965C366.03 34.0517 367.601 30.5633 369.135 26.5C370.745 22.4367 372.01 18.7567 372.93 15.46H380.175V54.33H389.605V67.21H380.175V84H364.42V67.21ZM400.376 23.51H413.831L414.981 31.445H415.786C420.233 25.235 425.983 22.13 433.036 22.13C440.703 22.13 445.993 25.235 448.906 31.445H449.826C454.426 25.235 460.406 22.13 467.766 22.13C473.516 22.13 478.078 23.8167 481.451 27.19C484.901 30.5633 486.626 35.9683 486.626 43.405V84H470.871V46.74C470.871 39.61 467.919 36.045 462.016 36.045C458.949 36.045 456.419 37.31 454.426 39.84C452.433 42.2933 451.436 45.36 451.436 49.04V84H435.681V46.74C435.681 39.61 432.729 36.045 426.826 36.045C423.759 36.045 421.191 37.31 419.121 39.84C417.128 42.2933 416.131 45.36 416.131 49.04V84H400.376V23.51ZM527.528 85.38C517.792 85.38 510.508 82.8117 505.678 77.675C500.925 72.5383 498.548 64.565 498.548 53.755C498.548 42.945 500.925 34.9717 505.678 29.835C510.508 24.6983 517.792 22.13 527.528 22.13C536.498 22.13 543.207 24.7367 547.653 29.95C552.1 35.0867 554.323 43.0217 554.323 53.755V57.435H514.533C514.687 62.8017 515.76 66.7883 517.753 69.395C519.747 71.925 523.082 73.19 527.758 73.19C531.055 73.19 533.7 72.27 535.693 70.43C537.763 68.59 538.798 65.9833 538.798 62.61H554.323C554.323 70.2 551.87 75.9117 546.963 79.745C542.057 83.5017 535.578 85.38 527.528 85.38ZM537.993 46.97C537.993 38.6133 534.505 34.435 527.528 34.435C523.542 34.435 520.513 35.47 518.443 37.54C516.45 39.61 515.223 42.7533 514.763 46.97H537.993Z" fill="#896BCF"/>
</svg>
